Coordinates
version=1
nRows=18
nColumns=22
inDegrees=yes

Units are S.I. units (second, meters, Newtons, ...)
If the header above contains a line with 'inDegrees', this indicates whether rotational values are in degrees (yes) or radians (no).

endheader
time	pelvis_tilt	pelvis_list	pelvis_rotation	pelvis_tx	pelvis_ty	pelvis_tz	hip_flexion_r	hip_adduction_r	hip_rotation_r	knee_angle_r	ankle_angle_r	subtalar_angle_r	hip_flexion_l	hip_adduction_l	hip_rotation_l	knee_angle_l	ankle_angle_l	subtalar_angle_l	lumbar_extension	lumbar_bending	lumbar_rotation
      0.01000000	     -5.65305710	     -2.51561284	     -2.30213796	      0.08034350	      0.95563182	      1.24451046	      7.89696059	      4.41983092	     -1.72561718	    -12.48592477	     11.17914882	     -0.56442197	      6.37855598	     -2.65837589	     -7.16909711	    -13.11715516	     10.73594100	     -6.76373094	     -1.68009964	      0.71027858	     -1.77657593
      0.02000000	     -5.65529650	     -2.51408051	     -2.30390725	      0.08035071	      0.95563234	      1.24453233	      7.89886517	      4.42025925	     -1.72450323	    -12.48409552	     11.17829179	     -0.56296203	      6.38041301	     -2.65782314	     -7.17186715	    -13.11596884	     10.73269133	     -6.76854477	     -1.68723549	      0.71079791	     -1.78044965
      0.03000000	     -5.65711092	     -2.51289024	     -2.30378898	      0.08038791	      0.95563462	      1.24455664	      7.89861357	      4.42108917	     -1.72438895	    -12.48446979	     11.17816555	     -0.56283292	      6.38008007	     -2.65763228	     -7.17209730	    -13.11621189	     10.73228003	     -6.76892726	     -1.68835981	      0.71117438	     -1.78093419
      0.04000000	     -5.65641552	     -2.51294448	     -2.30401065	      0.08038272	      0.95565179	      1.24459289	      7.90090779	      4.42427262	     -1.71700157	    -12.48859617	     11.16478654	     -0.53331388	      6.38779476	     -2.66176090	     -7.19408293	    -13.12662162	     10.64189621	     -6.87595914	     -1.70319560	      0.71238554	     -1.80304764
      0.05000000	     -5.65924444	     -2.51193204	     -2.30987576	      0.08040253	      0.95565430	      1.24463571	      7.90393188	      4.42686577	     -1.71654289	    -12.48898330	     11.16497043	     -0.53270956	      6.38798658	     -2.66188618	     -7.19251059	    -13.12486405	     10.64299668	     -6.87868861	     -1.70918563	      0.71215674	     -1.80815229
      0.06000000	     -5.66126777	     -2.51150872	     -2.31593289	      0.08042243	      0.95565849	      1.24468696	      7.90672242	      4.43020666	     -1.71479021	    -12.49130659	     11.16457626	     -0.53186188	      6.38846279	     -2.66375021	     -7.19065092	    -13.12551716	     10.64163070	     -6.88186684	     -1.71585048	      0.71177292	     -1.81564526
      0.07000000	     -5.66250269	     -2.51165870	     -2.32270176	      0.08044105	      0.95566645	      1.24474057	      7.90905579	      4.43447791	     -1.71187524	    -12.49474290	     11.16357476	     -0.53077054	      6.38982874	     -2.66650121	     -7.18837979	    -13.12968999	     10.63771941	     -6.88557326	     -1.72363009	      0.71246014	     -1.82492008
      0.08000000	     -5.65841914	     -2.51810061	     -2.32279186	      0.08044487	      0.95567764	      1.24478222	      7.91048609	      4.44510026	     -1.69763192	    -12.50845238	     11.15815485	     -0.52656939	      6.39717432	     -2.67615449	     -7.18474753	    -13.15154313	     10.62098076	     -6.90074528	     -1.73855496	      0.72216429	     -1.84591982
      0.09000000	     -5.66127609	     -2.51742597	     -2.33066949	      0.08046524	      0.95568142	      1.24484306	      7.91144959	      4.44904738	     -1.69913655	    -12.50553997	     11.15793593	     -0.52611599	      6.39925363	     -2.67812812	     -7.18347956	    -13.15365826	     10.61991013	     -6.90283359	     -1.74351487	      0.72052116	     -1.84873218
      0.10000000	     -5.66261421	     -2.51732090	     -2.34104076	      0.08049192	      0.95568402	      1.24490768	      7.91143779	      4.45355155	     -1.69911541	    -12.50464451	     11.15700602	     -0.52560456	      6.40082386	     -2.68136797	     -7.18192297	    -13.16018240	     10.61794763	     -6.90536711	     -1.74738603	      0.72024761	     -1.85332140
      0.11000000	     -5.66000834	     -2.53114015	     -2.34570242	      0.08047904	      0.95568978	      1.24497071	      7.91135203	      4.47437583	     -1.68019181	    -12.50950012	     11.14565897	     -0.52233531	      6.41767027	     -2.70295165	     -7.19098709	    -13.19671009	     10.60970624	     -6.92770901	     -1.76327140	      0.73632426	     -1.86261550
      0.12000000	     -5.66145844	     -2.53001775	     -2.35730449	      0.08051507	      0.95569048	      1.24503478	      7.91069957	      4.47780068	     -1.68129621	    -12.50882381	     11.14487668	     -0.52222462	      6.41714502	     -2.70489567	     -7.19016296	    -13.20072149	     10.60987076	     -6.92957097	     -1.76266750	      0.73622987	     -1.86581799
      0.13000000	     -5.66250107	     -2.52962464	     -2.36867405	      0.08053819	      0.95569019	      1.24510252	      7.91137518	      4.48234723	     -1.68060294	    -12.50947719	     11.14360278	     -0.52216660	      6.41760342	     -2.70845468	     -7.19063739	    -13.20582483	     10.61007971	     -6.93176116	     -1.76474886	      0.73641392	     -1.86897789
      0.14000000	     -5.66260850	     -2.53016743	     -2.38179576	      0.08055746	      0.95568956	      1.24517374	      7.91243075	      4.48834822	     -1.67783674	    -12.51274589	     11.14165391	     -0.52221421	      6.41826180	     -2.71343177	     -7.19305642	    -13.21329101	     10.61057693	     -6.93462547	     -1.76736221	      0.73800825	     -1.87204103
      0.15000000	     -5.65922758	     -2.54622427	     -2.40318338	      0.08053912	      0.95568911	      1.24525759	      7.92326835	      4.51377069	     -1.64470967	    -12.53889716	     11.12951727	     -0.52369746	      6.42807944	     -2.74013784	     -7.23179328	    -13.24289077	     10.62028641	     -6.95441409	     -1.78079236	      0.76026918	     -1.86289040
      0.16000000	     -5.66122972	     -2.54428690	     -2.41352085	      0.08055595	      0.95568456	      1.24532696	      7.92307207	      4.51699107	     -1.64587430	    -12.53623244	     11.12965103	     -0.52394955	      6.42851514	     -2.74179407	     -7.23256422	    -13.24380339	     10.62134731	     -6.95561098	     -1.78026436	      0.75837415	     -1.86377158
      0.17000000	     -5.66294494	     -2.54239359	     -2.42590108	      0.08057317	      0.95568001	      1.24539796	      7.92380663	      4.51991247	     -1.64542530	    -12.53508351	     11.12979396	     -0.52442691	      6.42768741	     -2.74418071	     -7.23537833	    -13.24504627	     10.62327896	     -6.95714061	     -1.77917991	      0.75857828	     -1.86480726
      0.18000000	     -5.67044996	     -2.54846819	     -2.45966206	      0.08059809	      0.95566048	      1.24549969	      7.93733459	      4.53566240	     -1.60755135	    -12.54899821	     11.13102027	     -0.53121397	      6.42328335	     -2.76014141	     -7.29465894	    -13.23388753	     10.64885393	     -6.97245326	     -1.76862741	      0.77167133	     -1.84341105
